<svg xmlns="http://www.w3.org/2000/svg" width="600" height="400" viewBox="0 0 600 400">
  <rect width="600" height="400" fill="#FAF6EF"/>
  <!-- six forecast lines converge to one verified point -->
  <g stroke-width="5" fill="none" stroke-linecap="round">
    <path d="M150 80  C 230 90, 300 130, 370 150" stroke="#8FB4D4"/>
    <path d="M150 110 C 230 112, 300 135, 370 150" stroke="#3E6E9E"/>
    <path d="M150 140 C 230 138, 300 142, 370 150" stroke="#4E7F63"/>
    <path d="M150 170 C 230 168, 300 158, 370 150" stroke="#7FA08C"/>
    <path d="M150 200 C 230 195, 300 165, 370 150" stroke="#C0592A"/>
    <path d="M150 230 C 230 220, 300 175, 370 150" stroke="#E8B98A"/>
  </g>
  <circle cx="370" cy="150" r="13" fill="#181513"/>
  <circle cx="370" cy="150" r="24" fill="none" stroke="#181513" stroke-width="3"/>
  <text x="300" y="330" text-anchor="middle" font-family="Fraunces, Georgia, serif" font-size="86" font-weight="600" fill="#181513">Ilma</text>
</svg>
