<svg xmlns="http://www.w3.org/2000/svg" width="600" height="400" viewBox="0 0 600 400">
  <rect width="600" height="400" fill="#FAF6EF"/>
  <!-- dot grid suggests the map of Finland, 14 station dots -->
  <g fill="#C9D9E4">
    <circle cx="285" cy="60" r="7"/><circle cx="315" cy="60" r="7"/>
    <circle cx="270" cy="90" r="7"/><circle cx="330" cy="90" r="7"/>
    <circle cx="285" cy="120" r="7"/><circle cx="345" cy="120" r="7"/>
    <circle cx="270" cy="150" r="7"/><circle cx="330" cy="150" r="7"/>
    <circle cx="255" cy="180" r="7"/><circle cx="315" cy="180" r="7"/>
    <circle cx="240" cy="210" r="7"/><circle cx="300" cy="210" r="7"/>
  </g>
  <g fill="#3E6E9E">
    <circle cx="300" cy="90" r="8"/><circle cx="315" cy="120" r="8"/>
    <circle cx="300" cy="150" r="8"/><circle cx="285" cy="180" r="8"/>
    <circle cx="270" cy="210" r="8"/>
  </g>
  <circle cx="300" cy="120" r="10" fill="#C0592A"/>
  <text x="300" y="330" text-anchor="middle" font-family="Fraunces, Georgia, serif" font-size="86" font-weight="600" fill="#181513">Ilma</text>
</svg>
